<svg id="visual" viewBox="0 0 900 600" width="900" height="600" xmlns="http://www.w3.org/2000/svg" xmlns:xlink="http://www.w3.org/1999/xlink" version="1.1"><rect x="0" y="0" width="900" height="600" fill="#fff"></rect><path d="M0 503L25 482.5C50 462 100 421 150 401.3C200 381.7 250 383.3 300 397.2C350 411 400 437 450 453.7C500 470.3 550 477.7 600 474C650 470.3 700 455.7 750 462.5C800 469.3 850 497.7 875 511.8L900 526L900 601L875 601C850 601 800 601 750 601C700 601 650 601 600 601C550 601 500 601 450 601C400 601 350 601 300 601C250 601 200 601 150 601C100 601 50 601 25 601L0 601Z" fill="#edc519" stroke-linecap="round" stroke-linejoin="miter"></path></svg>