<svg id="visual" viewBox="0 0 900 600" width="900" height="600" xmlns="http://www.w3.org/2000/svg" xmlns:xlink="http://www.w3.org/1999/xlink" version="1.1"><rect x="0" y="0" width="900" height="600" fill="#fff"></rect><path d="M0 95L25 115.5C50 136 100 177 150 196.7C200 216.3 250 214.7 300 200.8C350 187 400 161 450 144.3C500 127.7 550 120.3 600 124C650 127.7 700 142.3 750 135.5C800 128.7 850 100.3 875 86.2L900 72L900 0L875 0C850 0 800 0 750 0C700 0 650 0 600 0C550 0 500 0 450 0C400 0 350 0 300 0C250 0 200 0 150 0C100 0 50 0 25 0L0 0Z" fill="#edc519" stroke-linecap="round" stroke-linejoin="miter"></path></svg>