<svg id="visual" viewBox="0 0 900 600" width="900" height="600" xmlns="http://www.w3.org/2000/svg" xmlns:xlink="http://www.w3.org/1999/xlink" version="1.1"><rect x="0" y="0" width="900" height="600" fill="#ffffff"></rect><path d="M0 394L37.5 404.8C75 415.7 150 437.3 225 438.3C300 439.3 375 419.7 450 397.5C525 375.3 600 350.7 675 352C750 353.3 825 380.7 862.5 394.3L900 408L900 601L862.5 601C825 601 750 601 675 601C600 601 525 601 450 601C375 601 300 601 225 601C150 601 75 601 37.5 601L0 601Z" fill="#77206F" stroke-linecap="round" stroke-linejoin="miter"></path></svg>