<svg id="visual" viewBox="0 0 900 600" width="900" height="600" xmlns="http://www.w3.org/2000/svg" xmlns:xlink="http://www.w3.org/1999/xlink" version="1.1"><rect x="0" y="0" width="900" height="600" fill="#EE1F53"></rect><path d="M0 421L30 431.8C60 442.7 120 464.3 180 460.5C240 456.7 300 427.3 360 416C420 404.7 480 411.3 540 408.5C600 405.7 660 393.3 720 389.7C780 386 840 391 870 393.5L900 396L900 601L870 601C840 601 780 601 720 601C660 601 600 601 540 601C480 601 420 601 360 601C300 601 240 601 180 601C120 601 60 601 30 601L0 601Z" fill="#77206F" stroke-linecap="round" stroke-linejoin="miter"></path></svg>